<svg width="200" height="150" viewBox="0 0 200 150" fill="none" xmlns="http://www.w3.org/2000/svg">
  <rect width="200" height="150" rx="8" fill="#F3F4F6"/>
  <rect x="30" y="30" width="60" height="90" rx="4" fill="white" stroke="#4338CA" stroke-width="2"/>
  <rect x="110" y="30" width="60" height="90" rx="4" fill="white" stroke="#10B981" stroke-width="2"/>
  <rect x="40" y="50" width="40" height="6" rx="2" fill="#D1D5DB"/>
  <rect x="40" y="65" width="40" height="6" rx="2" fill="#D1D5DB"/>
  <rect x="40" y="80" width="40" height="6" rx="2" fill="#D1D5DB"/>
  <rect x="40" y="95" width="40" height="6" rx="2" fill="#D1D5DB"/>
  <rect x="120" y="50" width="40" height="6" rx="2" fill="#D1D5DB"/>
  <rect x="120" y="65" width="40" height="6" rx="2" fill="#D1D5DB"/>
  <rect x="120" y="80" width="40" height="6" rx="2" fill="#D1D5DB"/>
  <rect x="120" y="95" width="40" height="6" rx="2" fill="#D1D5DB"/>
  <circle cx="160" cy="40" r="15" fill="#4338CA"/>
  <text x="160" y="45" font-family="Arial" font-size="16" fill="white" text-anchor="middle">2</text>
</svg>

