<svg width="500" height="400" viewBox="0 0 500 400" fill="none" xmlns="http://www.w3.org/2000/svg">
  <rect width="500" height="400" rx="8" fill="#F3F4F6"/>
  <rect x="40" y="40" width="420" height="60" rx="4" fill="#E5E7EB"/>
  <rect x="60" y="60" width="200" height="20" rx="2" fill="#4338CA"/>
  <rect x="40" y="120" width="200" height="240" rx="4" fill="white"/>
  <rect x="260" y="120" width="200" height="240" rx="4" fill="white"/>
  <rect x="60" y="140" width="160" height="10" rx="2" fill="#D1D5DB"/>
  <rect x="60" y="160" width="120" height="10" rx="2" fill="#D1D5DB"/>
  <rect x="60" y="180" width="160" height="10" rx="2" fill="#D1D5DB"/>
  <rect x="60" y="200" width="140" height="10" rx="2" fill="#D1D5DB"/>
  <rect x="60" y="240" width="160" height="40" rx="4" fill="#4338CA"/>
  <rect x="60" y="300" width="160" height="10" rx="2" fill="#D1D5DB"/>
  <rect x="60" y="320" width="120" height="10" rx="2" fill="#D1D5DB"/>
  <rect x="280" y="140" width="160" height="10" rx="2" fill="#D1D5DB"/>
  <rect x="280" y="160" width="120" height="10" rx="2" fill="#D1D5DB"/>
  <rect x="280" y="180" width="160" height="10" rx="2" fill="#D1D5DB"/>
  <rect x="280" y="200" width="140" height="10" rx="2" fill="#D1D5DB"/>
  <rect x="280" y="240" width="160" height="40" rx="4" fill="#E5E7EB"/>
  <rect x="280" y="300" width="160" height="10" rx="2" fill="#D1D5DB"/>
  <rect x="280" y="320" width="120" height="10" rx="2" fill="#D1D5DB"/>
  <circle cx="240" cy="240" r="20" fill="#10B981"/>
  <path d="M232 240L238 246L248 236" stroke="white" stroke-width="3" stroke-linecap="round" stroke-linejoin="round"/>
</svg>

